<svg width="121" height="60" viewBox="0 0 121 60" fill="none" xmlns="http://www.w3.org/2000/svg">
<g clip-path="url(#clip0_5397_1195)">
<path d="M45.8621 0L42.4159 2.53205L43.0786 3.33164L19.7503 52.64L8.61628 28.7854H1.32617L5.56769 30.7844H4.77241L16.9668 57.4375H16.8342L16.9668 59.9696H22.5338L47.5853 6.79655L45.8621 0Z" fill="url(#paint0_linear_5397_1195)"/>
<path d="M0 28.7854H5.567L15.9057 51.4406L40.2944 0H45.8614L17.6288 59.9696H14.1826L0 28.7854Z" fill="url(#paint1_linear_5397_1195)"/>
</g>
<path d="M55.8332 31.6763H48.4759L47.2118 35.1737H44.2031L50.4985 18.0317H53.8359L60.1313 35.1737H57.0974L55.8332 31.6763ZM55.0242 29.3858L52.1672 21.4305L49.285 29.3858H55.0242Z" fill="#F05532"/>
<path d="M61.4411 28.3267C61.4411 26.9639 61.7276 25.7571 62.3007 24.7062C62.8906 23.6554 63.6828 22.8426 64.6773 22.2679C65.6886 21.6768 66.8094 21.3813 68.0399 21.3813C68.9501 21.3813 69.8434 21.5783 70.7198 21.9724C71.6132 22.35 72.3211 22.859 72.8436 23.4994V16.948H75.7511V35.1737H72.8436V33.1294C72.3717 33.7862 71.7143 34.3281 70.8715 34.755C70.0456 35.1819 69.0933 35.3953 68.0146 35.3953C66.801 35.3953 65.6886 35.0998 64.6773 34.5087C63.6828 33.9011 62.8906 33.0638 62.3007 31.9965C61.7276 30.9128 61.4411 29.6895 61.4411 28.3267ZM72.8436 28.376C72.8436 27.4401 72.6413 26.6273 72.2368 25.9377C71.8491 25.2481 71.3351 24.7226 70.6946 24.3614C70.0541 24.0002 69.363 23.8196 68.6214 23.8196C67.8797 23.8196 67.1887 24.0002 66.5482 24.3614C65.9077 24.7062 65.3852 25.2234 64.9806 25.9131C64.593 26.5863 64.3991 27.3908 64.3991 28.3267C64.3991 29.2626 64.593 30.0836 64.9806 30.7896C65.3852 31.4957 65.9077 32.0375 66.5482 32.4152C67.2055 32.7764 67.8966 32.957 68.6214 32.957C69.363 32.957 70.0541 32.7764 70.6946 32.4152C71.3351 32.054 71.8491 31.5285 72.2368 30.8389C72.6413 30.1329 72.8436 29.3119 72.8436 28.376Z" fill="#F05532"/>
<path d="M84.4553 32.6615L88.3994 21.6029H91.4587L86.1493 35.1737H82.7108L77.4267 21.6029H80.5112L84.4553 32.6615Z" fill="#F05532"/>
<path d="M98.5558 32.6615L102.5 21.6029H105.559L100.25 35.1737H96.8113L91.5272 21.6029H94.6117L98.5558 32.6615Z" fill="#F05532"/>
<path d="M106.31 28.3267C106.31 26.9639 106.597 25.7571 107.17 24.7062C107.76 23.6554 108.552 22.8426 109.547 22.2679C110.558 21.6768 111.67 21.3813 112.884 21.3813C113.979 21.3813 114.932 21.5947 115.741 22.0216C116.567 22.4321 117.224 22.9493 117.713 23.5733V21.6029H120.62V35.1737H117.713V33.1541C117.224 33.7944 116.558 34.3281 115.716 34.755C114.873 35.1819 113.912 35.3953 112.833 35.3953C111.637 35.3953 110.541 35.0998 109.547 34.5087C108.552 33.9011 107.76 33.0638 107.17 31.9965C106.597 30.9128 106.31 29.6895 106.31 28.3267ZM117.713 28.376C117.713 27.4401 117.511 26.6273 117.106 25.9377C116.718 25.2481 116.204 24.7226 115.564 24.3614C114.923 24.0002 114.232 23.8196 113.491 23.8196C112.749 23.8196 112.058 24.0002 111.417 24.3614C110.777 24.7062 110.254 25.2234 109.85 25.9131C109.462 26.5863 109.268 27.3908 109.268 28.3267C109.268 29.2626 109.462 30.0836 109.85 30.7896C110.254 31.4957 110.777 32.0375 111.417 32.4152C112.075 32.7764 112.766 32.957 113.491 32.957C114.232 32.957 114.923 32.7764 115.564 32.4152C116.204 32.054 116.718 31.5285 117.106 30.8389C117.511 30.1329 117.713 29.3119 117.713 28.376Z" fill="#F05532"/>
<path d="M50.3974 42.5132C53.3976 42.5132 55.7068 43.2767 57.3249 44.8037C58.9599 46.3307 59.7773 48.457 59.7773 51.1827C59.7773 53.9083 58.9599 56.0264 57.3249 57.537C55.7068 59.0476 53.3976 59.8029 50.3974 59.8029H45.4167V42.5132H50.3974ZM50.3974 58.867C53.0774 58.867 55.1169 58.1938 56.5159 56.8474C57.9148 55.4846 58.6143 53.5964 58.6143 51.1827C58.6143 48.7526 57.9148 46.8561 56.5159 45.4933C55.1169 44.1305 53.0774 43.4491 50.3974 43.4491H46.5544V58.867H50.3974Z" fill="#F05532"/>
<path d="M75.1149 52.2171C75.1149 52.8082 75.0981 53.2515 75.0643 53.5471H63.2067C63.2404 54.7457 63.5101 55.7555 64.0158 56.5765C64.5214 57.3975 65.1872 58.0132 66.0131 58.4237C66.839 58.8342 67.7408 59.0394 68.7184 59.0394C70.0668 59.0394 71.1961 58.7192 72.1063 58.0789C73.0164 57.4221 73.5895 56.5355 73.8255 55.4189H75.0138C74.7441 56.7817 74.053 57.8901 72.9406 58.7439C71.8281 59.5813 70.4207 60 68.7184 60C67.4374 60 66.2912 59.7208 65.2799 59.1626C64.2686 58.6043 63.4764 57.808 62.9033 56.7735C62.3302 55.7227 62.0437 54.4994 62.0437 53.1038C62.0437 51.7081 62.3218 50.4931 62.878 49.4586C63.4511 48.4242 64.2433 47.6361 65.2546 47.0942C66.2659 46.536 67.4205 46.2568 68.7184 46.2568C70.0331 46.2568 71.1708 46.536 72.1315 47.0942C73.1091 47.6361 73.8508 48.3667 74.3564 49.2862C74.8621 50.1893 75.1149 51.1663 75.1149 52.2171ZM73.9772 52.6358C74.0278 51.4536 73.8086 50.452 73.3198 49.631C72.8479 48.8101 72.199 48.2025 71.3731 47.8085C70.5471 47.398 69.6538 47.1927 68.6931 47.1927C67.7323 47.1927 66.839 47.398 66.0131 47.8085C65.204 48.2025 64.5383 48.8101 64.0158 49.631C63.5101 50.452 63.2404 51.4536 63.2067 52.6358H73.9772Z" fill="#F05532"/>
<path d="M77.3787 53.1038C77.3787 51.7245 77.6568 50.5177 78.213 49.4833C78.7861 48.4488 79.5699 47.6525 80.5643 47.0942C81.5756 46.536 82.7218 46.2568 84.0028 46.2568C85.4523 46.2568 86.6828 46.6016 87.6941 47.2913C88.7054 47.9809 89.4133 48.8593 89.8178 49.9266V46.4292H90.9556V59.8029H89.8178V56.281C89.4133 57.3646 88.697 58.2595 87.6688 58.9655C86.6575 59.6552 85.4355 60 84.0028 60C82.7218 60 81.5756 59.7208 80.5643 59.1626C79.5699 58.5879 78.7861 57.7833 78.213 56.7489C77.6568 55.6981 77.3787 54.483 77.3787 53.1038ZM89.8178 53.1038C89.8178 51.938 89.565 50.9118 89.0594 50.0251C88.5706 49.122 87.8964 48.4324 87.0367 47.9563C86.1771 47.4637 85.2164 47.2174 84.1545 47.2174C83.042 47.2174 82.0644 47.4555 81.2217 47.9316C80.3789 48.3914 79.7216 49.0646 79.2496 49.9512C78.7777 50.8379 78.5417 51.8887 78.5417 53.1038C78.5417 54.3188 78.7777 55.3697 79.2496 56.2563C79.7216 57.143 80.3789 57.8244 81.2217 58.3005C82.0813 58.7767 83.0589 59.0148 84.1545 59.0148C85.2164 59.0148 86.1771 58.7767 87.0367 58.3005C87.9132 57.808 88.5958 57.1183 89.0846 56.2317C89.5734 55.3286 89.8178 54.286 89.8178 53.1038Z" fill="#F05532"/>
<path d="M95.7692 41.5773V59.8029H94.6314V41.5773H95.7692Z" fill="#F05532"/>
<path d="M104.049 60C102.515 60 101.26 59.6716 100.282 59.0148C99.3214 58.358 98.782 57.4221 98.664 56.2071H99.827C99.9113 57.0773 100.316 57.7669 101.041 58.2759C101.782 58.7849 102.785 59.0394 104.049 59.0394C105.094 59.0394 105.92 58.7849 106.527 58.2759C107.151 57.7505 107.462 57.1101 107.462 56.3548C107.462 55.8294 107.294 55.4025 106.957 55.0741C106.637 54.7293 106.232 54.4666 105.743 54.286C105.254 54.1054 104.589 53.9083 103.746 53.6949C102.735 53.4322 101.917 53.1777 101.293 52.9314C100.67 52.6687 100.139 52.2828 99.7006 51.7738C99.2624 51.2648 99.0433 50.5834 99.0433 49.7296C99.0433 49.1056 99.2371 48.5309 99.6248 48.0055C100.012 47.4637 100.552 47.0368 101.243 46.7248C101.934 46.4128 102.718 46.2568 103.594 46.2568C105.027 46.2568 106.181 46.6099 107.058 47.3159C107.951 48.0055 108.432 48.9661 108.499 50.1975H107.361C107.311 49.3109 106.957 48.5884 106.299 48.0301C105.642 47.4719 104.732 47.1927 103.569 47.1927C102.591 47.1927 101.782 47.439 101.142 47.9316C100.501 48.4242 100.181 49.0235 100.181 49.7296C100.181 50.3535 100.358 50.8625 100.712 51.2566C101.083 51.6342 101.529 51.9298 102.052 52.1432C102.591 52.3403 103.299 52.5537 104.176 52.7836C105.136 53.0299 105.903 53.2762 106.476 53.5225C107.066 53.7523 107.564 54.0972 107.968 54.5569C108.373 55.0002 108.575 55.5995 108.575 56.3548C108.575 57.0445 108.381 57.6684 107.993 58.2267C107.606 58.7849 107.066 59.22 106.375 59.532C105.684 59.844 104.909 60 104.049 60Z" fill="#F05532"/>
<defs>
<linearGradient id="paint0_linear_5397_1195" x1="1.32617" y1="29.96" x2="47.567" y2="29.96" gradientUnits="userSpaceOnUse">
<stop stop-color="#00662F"/>
<stop offset="0.4765" stop-color="#016430"/>
<stop offset="0.6481" stop-color="#045D33"/>
<stop offset="0.7705" stop-color="#095238"/>
<stop offset="0.8694" stop-color="#10413F"/>
<stop offset="0.9531" stop-color="#192B48"/>
<stop offset="1" stop-color="#201B4F"/>
</linearGradient>
<linearGradient id="paint1_linear_5397_1195" x1="3.80054" y1="49.3998" x2="49.6329" y2="3.81788" gradientUnits="userSpaceOnUse">
<stop stop-color="#00A551"/>
<stop offset="1" stop-color="#1E194D"/>
</linearGradient>
<clipPath id="clip0_5397_1195">
<rect width="47.5846" height="59.9696" fill="white"/>
</clipPath>
</defs>
</svg>
