<svg width="130" height="43" viewBox="0 0 130 43" fill="none" xmlns="http://www.w3.org/2000/svg">
<path d="M11.6956 38.1484L0 38.2012V38.0054C0.308222 37.9509 0.610844 37.8645 0.903661 37.7475C1.17054 37.6466 1.41041 37.477 1.60234 37.2533C1.67309 37.1498 1.72501 37.0327 1.75535 36.9084C1.79924 36.738 1.83203 36.5646 1.85351 36.3894C1.87661 36.1905 1.89682 35.9854 1.91414 35.7678C1.93147 35.5503 1.94013 35.3389 1.94013 35.1307C1.94013 34.9225 1.94013 34.6987 1.94013 34.3848C1.94013 34.071 1.94013 33.726 1.95456 33.3562C1.969 32.9863 1.95456 32.601 1.95456 32.2063C1.95456 31.8116 1.95456 31.4231 1.95456 31.0688L1.94013 27.2649C1.94013 27.0287 1.94013 26.8019 1.94013 26.5781C1.94136 26.3591 1.93172 26.1402 1.91125 25.9224C1.89703 25.74 1.86903 25.5591 1.82753 25.3816C1.79926 25.2456 1.74302 25.1182 1.66296 25.0087C1.47789 24.7794 1.24132 24.605 0.975838 24.5021C0.685617 24.3855 0.383027 24.3082 0.0750628 24.2721V24.0763L5.88678 24.0484V24.2442C5.72799 24.2721 5.54033 24.3125 5.30936 24.3654C5.0928 24.4183 4.88463 24.5052 4.69152 24.6233C4.49138 24.7477 4.32048 24.9199 4.19206 25.1268C4.04225 25.3824 3.96406 25.6792 3.96687 25.9814C3.96687 26.4383 3.94954 26.8578 3.94665 27.2245C3.94377 27.5912 3.94665 27.9797 3.94665 28.3433C3.94665 28.7069 3.94665 29.0892 3.94665 29.4839C3.94665 29.8786 3.94665 30.3137 3.94665 30.7954C3.94665 31.2771 3.94665 31.6469 3.94665 32.0136C3.94665 32.3803 3.94665 32.7129 3.94665 33.0516C3.94665 33.3904 3.94665 33.7415 3.94665 34.0989C3.94665 34.4563 3.94665 34.8634 3.96109 35.3079C3.97553 35.7523 3.99285 36.1252 4.01017 36.5044C4.01034 36.7978 4.07672 37.0868 4.2036 37.3466C4.28563 37.4327 4.38417 37.4985 4.49231 37.5392C4.66338 37.6122 4.84021 37.6683 5.02065 37.7071C5.22852 37.7506 5.45083 37.7879 5.69623 37.8189C5.93857 37.8506 6.18257 37.8651 6.42666 37.8625C6.52194 37.8625 6.67784 37.8625 6.8886 37.8625C7.09936 37.8625 7.3361 37.8407 7.59017 37.8221C7.84423 37.8034 8.10695 37.7692 8.37545 37.7257C8.61449 37.6914 8.8509 37.6385 9.08279 37.5672C9.51261 37.4483 9.9213 37.2541 10.2925 36.9923C10.6039 36.7655 10.8822 36.49 11.1182 36.1749C11.348 35.8669 11.5419 35.5298 11.6956 35.1711C11.8515 34.8106 12.0016 34.4346 12.146 34.043L12.3279 34.102L11.6956 38.1484Z" fill="black"/>
<path d="M20.7665 36.9082C20.6707 37.1414 20.5422 37.3573 20.3854 37.5484C20.2315 37.7342 20.0425 37.8825 19.8311 37.9835C19.6085 38.0821 19.3702 38.1327 19.1295 38.1326C18.7318 38.1405 18.3432 38.0036 18.0267 37.7442C17.7033 37.4862 17.5416 37.0263 17.5387 36.3737L17.5012 36.355C17.3857 36.5556 17.2554 36.7458 17.1114 36.9237C16.9397 37.1437 16.746 37.3427 16.534 37.5173C16.3069 37.7032 16.056 37.8529 15.7892 37.9617C15.4998 38.0763 15.1938 38.1342 14.8855 38.1326C14.6857 38.1317 14.4868 38.1035 14.2936 38.0487C14.0934 37.9878 13.9074 37.8819 13.748 37.738C13.5767 37.5795 13.4389 37.3835 13.3438 37.163C13.2335 36.8908 13.1794 36.596 13.185 36.2991C13.1944 35.9038 13.3394 35.5263 13.5921 35.2393C13.8842 34.8776 14.2236 34.5635 14.5997 34.307C14.9981 34.0335 15.3532 33.7973 15.6621 33.5985C15.971 33.3996 16.2395 33.2317 16.4705 33.095C16.7015 32.9583 16.9036 32.8371 17.0797 32.7376C17.2558 32.6382 17.403 32.5511 17.5243 32.4703V30.4503C17.5123 30.386 17.4908 30.3241 17.4608 30.267C17.4073 30.1489 17.3328 30.0433 17.2414 29.9562C17.1147 29.8352 16.969 29.7394 16.8112 29.6734C16.5848 29.5801 16.3431 29.5378 16.101 29.5491C15.9041 29.5493 15.7088 29.5861 15.5235 29.6578C15.3461 29.7264 15.1781 29.8205 15.0241 29.9375C14.8963 30.0326 14.7808 30.1454 14.6805 30.2732C14.6104 30.3498 14.5657 30.4492 14.5535 30.556V31.4386C14.5504 31.5373 14.5249 31.6338 14.479 31.7194C14.4332 31.805 14.3686 31.8772 14.2908 31.9296C14.1266 32.0706 13.9233 32.1483 13.7133 32.1502C13.6199 32.1515 13.5272 32.1323 13.4408 32.0939C13.3545 32.0554 13.2763 31.9985 13.211 31.9265C13.1444 31.8604 13.0914 31.7801 13.0551 31.6908C13.0188 31.6014 13.0001 31.505 13.0002 31.4075C12.9967 31.2555 13.0338 31.1056 13.107 30.9755C13.1801 30.8432 13.2717 30.7237 13.3784 30.6212C13.4881 30.5167 13.607 30.424 13.7335 30.3446C13.8606 30.267 13.9703 30.1924 14.0684 30.1271C14.3831 29.9282 14.7036 29.7386 15.0327 29.5522C15.3619 29.3657 15.6708 29.2103 15.9682 29.0798C16.2357 28.9594 16.5095 28.8557 16.7881 28.769C16.9848 28.6979 17.1899 28.6571 17.3973 28.6478C17.7122 28.6446 18.0219 28.7349 18.2923 28.9089C18.5486 29.0579 18.7584 29.2849 18.8957 29.5615C18.9576 29.7122 18.989 29.8753 18.9881 30.0401C19.0025 30.2732 19.0083 30.4969 19.0083 30.7207C19.0083 31.19 19.0083 31.6157 19.0083 31.9917C19.0083 32.3678 19.0083 32.7376 19.0083 33.0919C19.0083 33.4462 19.0083 33.8067 19.0083 34.1796C19.0083 34.5525 19.0083 34.9627 19.0083 35.4072C19.0083 35.9945 19.1064 36.383 19.297 36.5726C19.3822 36.6629 19.4833 36.7342 19.5943 36.7822C19.7053 36.8302 19.8241 36.854 19.9437 36.8523C20.1637 36.8716 20.3829 36.8054 20.5615 36.6658C20.6965 36.5384 20.7913 36.369 20.8329 36.181H20.9426C20.9311 36.4317 20.8773 36.6782 20.7838 36.9082H20.7665ZM17.5243 32.7842C17.2632 32.9844 16.9903 33.1661 16.7073 33.3281C16.3792 33.5178 16.0602 33.7252 15.7516 33.9496C15.4582 34.1605 15.1897 34.4088 14.9519 34.6893C14.7364 34.9366 14.6175 35.2638 14.6199 35.6029C14.6177 35.9476 14.7363 36.2805 14.9519 36.5353C15.0576 36.6701 15.1907 36.7769 15.3409 36.8475C15.4911 36.9181 15.6543 36.9506 15.818 36.9424C16.1009 36.9466 16.3829 36.9068 16.6553 36.8243C16.9114 36.7347 17.1426 36.5776 17.328 36.3674C17.3988 36.298 17.4548 36.2129 17.4922 36.1179C17.5296 36.023 17.5474 35.9205 17.5445 35.8174L17.5243 32.7842Z" fill="black"/>
<path d="M34.2629 29.0207C34.1079 29.0344 33.9564 29.0776 33.8154 29.1481C33.6558 29.2334 33.5112 29.348 33.3881 29.4868C33.2293 29.6668 33.1039 29.8778 33.0186 30.1084C32.8742 30.4751 32.7039 30.904 32.5047 31.395C32.3055 31.8861 32.1005 32.402 31.8897 32.9489C31.679 33.4959 31.4711 34.018 31.2574 34.5495C31.0438 35.0809 30.859 35.575 30.68 36.0319C30.5703 36.2805 30.4808 36.4949 30.4086 36.669C30.3365 36.843 30.2701 37.0046 30.2094 37.1414C30.1488 37.2781 30.094 37.4149 30.0391 37.5454C29.9842 37.6759 29.9207 37.8189 29.8486 37.9774C29.8335 38.0112 29.8103 38.04 29.7813 38.0608C29.7524 38.0816 29.7188 38.0935 29.684 38.0955C29.6629 38.0993 29.6413 38.0979 29.6208 38.0914C29.6003 38.085 29.5815 38.0736 29.5656 38.0582C29.5461 38.0279 29.5315 37.9942 29.5223 37.9587C29.3606 37.4521 29.2076 36.9642 29.0604 36.5012C28.9131 36.0381 28.7572 35.5688 28.5984 35.0622C28.4397 34.5557 28.2664 34.0211 28.0816 33.4337C27.8969 32.8464 27.6832 32.1906 27.4349 31.4168L25.7229 36.2898C25.5815 36.5836 25.4553 36.8855 25.3447 37.1942C25.261 37.4428 25.157 37.7132 25.0387 38.0022C25.0198 38.0363 24.9932 38.0647 24.9614 38.0848C24.9296 38.1049 24.8936 38.116 24.8568 38.1172C24.7961 38.1172 24.7413 38.0737 24.6922 37.9805C24.213 36.7374 23.7462 35.5305 23.292 34.3599C22.8377 33.1893 22.3566 31.9461 21.8484 30.6305C21.7734 30.4471 21.6925 30.2482 21.6001 30.0338C21.5153 29.8348 21.4188 29.6417 21.3114 29.4558C21.2089 29.3676 21.1019 29.2856 20.991 29.2102C20.7366 29.0868 20.4583 29.0314 20.1797 29.0486V28.8342L24.2794 28.8124V29.03L23.9906 29.0704C23.8737 29.0852 23.7579 29.1091 23.6442 29.1419C23.5287 29.1761 23.4219 29.2102 23.318 29.2506C23.2263 29.2833 23.1425 29.3374 23.0726 29.4091C23.0985 29.5117 23.1938 29.7976 23.3613 30.2607C23.5287 30.7237 23.7337 31.2738 23.9791 31.914C24.2245 32.5542 24.4872 33.2317 24.7673 33.9496C25.0473 34.6676 25.3101 35.3295 25.5439 35.9293L25.8846 34.997C26.0174 34.6303 26.1733 34.2262 26.3176 33.7787C26.462 33.3312 26.6323 32.8681 26.794 32.3833C26.9557 31.8985 27.1145 31.423 27.2733 30.9506C27.1867 30.6896 27.0943 30.4409 26.9846 30.1954C26.8748 29.9499 26.7767 29.7168 26.6525 29.4806C26.616 29.442 26.5822 29.4005 26.5515 29.3563C26.513 29.3002 26.4637 29.2536 26.4071 29.2196C26.317 29.1648 26.2196 29.125 26.1184 29.1015C25.9501 29.0643 25.7792 29.0424 25.6074 29.0362V28.8187L29.7619 28.8V28.9927L29.3982 29.0455C29.2539 29.0642 29.111 29.0943 28.9709 29.1357C28.842 29.1702 28.7192 29.2269 28.6071 29.3035C28.5587 29.3367 28.519 29.3827 28.4917 29.4371C28.4645 29.4915 28.4505 29.5525 28.4512 29.6143C28.4706 29.7711 28.5054 29.9253 28.5551 30.0742C28.6215 30.3135 28.711 30.6119 28.8207 30.963C28.9305 31.3142 29.0604 31.7089 29.2018 32.1409C29.3433 32.5729 29.4906 33.0018 29.632 33.4337C29.7735 33.8657 29.9207 34.2853 30.068 34.6955C30.2152 35.1058 30.3336 35.4694 30.4433 35.7801C30.5155 35.6123 30.6194 35.3606 30.7522 35.025C30.885 34.6893 31.0236 34.3195 31.1737 33.9061C31.3239 33.4928 31.4798 33.067 31.6443 32.6288C31.8089 32.1906 31.9504 31.7773 32.0745 31.3857C32.1986 30.9941 32.3055 30.6554 32.3892 30.3539C32.4559 30.1534 32.4985 29.9445 32.5162 29.7324C32.5253 29.5802 32.4822 29.4298 32.395 29.3097C32.3168 29.2134 32.2176 29.1397 32.1063 29.0953C31.9856 29.0511 31.8606 29.0219 31.7338 29.0082L31.3672 28.974V28.7565H34.7018V28.9927L34.2571 29.0362" fill="black"/>
<path d="M52.1751 31.5939C51.9603 31.6575 51.7733 31.8005 51.6468 31.9979C51.5493 32.2047 51.5007 32.4342 51.5053 32.6661C51.5053 32.9768 51.488 33.2659 51.4909 33.5673V36.4327C51.2924 36.5824 51.0829 36.7145 50.8644 36.8274C50.4686 37.0398 50.0618 37.2276 49.646 37.3899C49.1265 37.594 48.5939 37.757 48.0524 37.8778C47.4772 38.0105 46.891 38.0792 46.3028 38.0829C45.2537 38.1053 44.2081 37.948 43.2049 37.6167C42.3499 37.3365 41.5618 36.8593 40.8953 36.2182C40.2621 35.5881 39.7687 34.8128 39.4517 33.9496C39.1032 32.9903 38.9288 31.9681 38.9378 30.9382C38.9416 30.5614 38.9705 30.1854 39.0245 29.8132C39.1665 28.8234 39.4872 27.8732 39.9685 27.0162C40.7107 25.7151 41.8252 24.7086 43.1443 24.1477C44.132 23.7437 45.183 23.5495 46.2393 23.5759C46.8879 23.5631 47.5358 23.6288 48.1707 23.7717C48.6521 23.881 49.125 24.0295 49.5854 24.2161C49.8917 24.3389 50.1882 24.4886 50.4717 24.6636C50.5804 24.7437 50.6965 24.8114 50.8182 24.8656C50.8413 24.8656 50.9077 24.7879 51.0174 24.6294L51.4158 24.0607H51.5804L51.5977 28.337H51.3783C51.2457 27.7548 51.0408 27.1945 50.7691 26.6712C50.534 26.2024 50.2428 25.7688 49.903 25.3815C49.4792 24.9227 48.9707 24.5649 48.4104 24.3311C47.7608 24.0512 47.0659 23.9138 46.3663 23.9271C45.6095 23.9209 44.8639 24.1243 44.201 24.5175C43.5598 24.9033 43.0035 25.4333 42.5698 26.0714C42.1091 26.7489 41.7604 27.507 41.5391 28.3121C41.2957 29.1742 41.176 30.0713 41.184 30.9723C41.1791 31.9183 41.2997 32.8601 41.542 33.7693C41.7476 34.5569 42.0905 35.2952 42.5525 35.9448C42.9835 36.5341 43.5334 37.0102 44.1606 37.337C44.8394 37.6788 45.5825 37.8469 46.3317 37.8281C46.8891 37.8297 47.4418 37.7168 47.96 37.4955C48.4513 37.2895 48.8689 36.9205 49.1523 36.442C49.2769 36.1581 49.3494 35.8511 49.366 35.5376C49.4127 35.095 49.4359 34.6499 49.4353 34.2044C49.436 33.7888 49.4119 33.3736 49.3631 32.9613C49.3324 32.6249 49.2006 32.3085 48.9878 32.0601C48.6991 31.7213 48.214 31.5224 47.5096 31.4572V31.2614L52.8478 31.2365V31.4323C52.619 31.4656 52.3937 31.5229 52.1751 31.6032" fill="black"/>
<path d="M60.0957 30.2018C60.0305 30.2908 59.9477 30.3629 59.8533 30.4129C59.7589 30.4629 59.6552 30.4895 59.55 30.4908C59.3892 30.4992 59.2291 30.4628 59.0852 30.3851C58.979 30.3179 58.8818 30.2353 58.7965 30.1396C58.7112 30.0511 58.6195 29.97 58.5222 29.8972C58.3939 29.8182 58.2466 29.782 58.0992 29.7931C57.9517 29.8041 57.8105 29.862 57.6936 29.9594C57.5446 30.0804 57.4123 30.2238 57.301 30.3851C57.1748 30.5652 57.0664 30.7589 56.9776 30.9632C56.8795 31.1807 56.7957 31.3858 56.7236 31.5847L56.7466 37.2347C56.7671 37.2955 56.7989 37.3511 56.8401 37.3982C56.8813 37.4452 56.9311 37.4826 56.9863 37.5081C57.1155 37.5757 57.2539 37.6208 57.3962 37.6418C57.5529 37.6688 57.7111 37.6844 57.8697 37.6884C58.013 37.6947 58.1558 37.7113 58.297 37.7381V37.9339L54.2176 37.9525V37.7568C54.4633 37.736 54.7047 37.6752 54.9336 37.5765C55.0202 37.5436 55.0948 37.4819 55.1467 37.4003C55.1986 37.3188 55.2251 37.2216 55.2223 37.1228L55.2078 30.4908C55.2106 30.4119 55.2008 30.3331 55.179 30.2577C55.1431 30.1843 55.0892 30.1231 55.0231 30.0806C54.9133 30.0163 54.7863 29.9355 54.642 29.8382C54.5021 29.7436 54.3554 29.6615 54.2031 29.5926V29.4777L56.5879 28.4645H56.6976L56.6716 31.19H56.7062C56.7669 31.0346 56.865 30.8047 56.9949 30.5032C57.1363 30.1764 57.3055 29.8643 57.5002 29.5709C57.7066 29.2638 57.9582 28.9951 58.245 28.7753C58.5364 28.5515 58.8861 28.4329 59.244 28.4366C59.5274 28.428 59.8038 28.532 60.0206 28.7287C60.123 28.8181 60.2051 28.9314 60.2607 29.0602C60.3162 29.1889 60.3437 29.3295 60.3411 29.4714C60.3532 29.7335 60.2692 29.9902 60.1072 30.1862" fill="black"/>
<path d="M68.9692 34.9691C68.7507 35.5428 68.4377 36.0692 68.0453 36.523C67.6633 36.9636 67.2041 37.3185 66.6941 37.5672C66.1818 37.818 65.6257 37.9483 65.0629 37.9495C64.5588 37.9504 64.0578 37.8643 63.579 37.6946C63.035 37.5007 62.534 37.188 62.1073 36.7763C61.6806 36.3646 61.3374 35.8626 61.099 35.3016C60.8119 34.6187 60.6689 33.8757 60.6803 33.1262C60.6777 32.5274 60.7847 31.9339 60.995 31.3796C61.4119 30.246 62.2248 29.3333 63.2593 28.8372C64.2939 28.3411 65.4679 28.301 66.5296 28.7255C67.0299 28.9195 67.4921 29.2125 67.8923 29.5895C68.3496 30.0263 68.7125 30.5658 68.9554 31.1698C69.1983 31.7738 69.3154 32.4278 69.2983 33.0858C69.3043 33.7356 69.1895 34.3802 68.9605 34.9815L68.9692 34.9691ZM67.4621 31.6437C67.3742 31.153 67.2226 30.678 67.0117 30.2328C66.813 29.8162 66.531 29.4521 66.186 29.1668C65.8214 28.8806 65.3783 28.734 64.9272 28.7504C64.5379 28.7493 64.1595 28.8894 63.8532 29.1482C63.5235 29.432 63.2497 29.7839 63.0477 30.1831C62.8152 30.6315 62.6449 31.1142 62.5425 31.6158C62.4289 32.1478 62.3727 32.6921 62.375 33.238C62.3758 33.8097 62.427 34.3799 62.5281 34.9411C62.6154 35.4393 62.7773 35.919 63.0073 36.3614C63.2122 36.7542 63.5012 37.0888 63.8504 37.3372C64.2171 37.5881 64.6461 37.7127 65.0803 37.6946C65.5182 37.7071 65.9442 37.5406 66.2726 37.2285C66.6038 36.9039 66.8692 36.5093 67.0521 36.0693C67.2544 35.5896 67.399 35.0841 67.4823 34.5651C67.5682 34.0732 67.6117 33.5738 67.6122 33.0733C67.6077 32.593 67.5604 32.1143 67.4708 31.6437" fill="black"/>
<path d="M76.4874 37.8654H76.3604V35.8857L76.3431 35.864C76.1947 36.1112 76.0317 36.3478 75.8552 36.5726C75.66 36.824 75.4403 37.0522 75.1998 37.2532C74.9557 37.4595 74.6829 37.6231 74.3914 37.738C74.0854 37.8588 73.7618 37.9199 73.4358 37.9182C72.6659 37.9182 72.0885 37.6727 71.7035 37.1817C71.3311 36.6875 71.1406 35.9603 71.1261 35.0063L71.1088 30.2203C71.1088 30.1675 71.1088 30.0991 71.1088 30.0059C71.109 29.9102 71.1023 29.8146 71.0886 29.72C71.0886 29.6237 71.0684 29.5304 71.0626 29.4465C71.0594 29.3816 71.0436 29.3181 71.0164 29.2601C70.9736 29.1529 70.8996 29.0635 70.8057 29.0052C70.7096 28.9531 70.6077 28.9144 70.5025 28.8902C70.3884 28.8648 70.2725 28.8492 70.1561 28.8436C70.0348 28.8436 69.9193 28.8436 69.8125 28.8157V28.5981H72.6187L72.6418 34.307C72.6418 35.1689 72.766 35.806 73.0143 36.2183C73.2626 36.6254 73.7187 36.8398 74.3914 36.8398C74.619 36.8448 74.8457 36.8069 75.0612 36.7279C75.2413 36.6595 75.4129 36.5677 75.5722 36.4545C75.7222 36.3397 75.8623 36.2108 75.9909 36.0691C76.117 35.9251 76.2356 35.7737 76.346 35.6154L76.3229 30.0215C76.3208 29.8529 76.3082 29.6847 76.2853 29.518C76.2719 29.354 76.2214 29.1961 76.1381 29.0581C75.9464 28.9813 75.7466 28.9302 75.5434 28.9058C75.2951 28.8685 75.0381 28.8343 74.7696 28.8094V28.595H77.8299L77.8617 36.3426C77.8586 36.4223 77.8674 36.502 77.8877 36.5788C77.9252 36.651 77.98 36.7111 78.0465 36.7528C78.1533 36.8181 78.315 36.9051 78.5286 37.0076C78.7422 37.1102 78.9212 37.1941 79.0685 37.2594V37.3775L76.4874 37.8654Z" fill="black"/>
<path d="M88.5645 34.6303C88.3426 35.2431 88.0009 35.7973 87.5627 36.2557C87.1046 36.7243 86.5622 37.087 85.969 37.3216C85.2886 37.5893 84.5686 37.722 83.8441 37.7132C83.6276 37.7132 83.4111 37.7132 83.2003 37.6977C82.9771 37.6827 82.7552 37.6505 82.5363 37.6013C82.5363 37.7847 82.5363 38.052 82.5363 38.4063C82.5363 38.7605 82.5507 39.1304 82.5565 39.5251C82.5623 39.9197 82.5565 40.302 82.5709 40.6811C82.5854 41.0603 82.5709 41.368 82.5709 41.6135C82.5834 41.6709 82.6082 41.7244 82.6433 41.7697C82.6784 41.815 82.7228 41.8509 82.773 41.8745C82.8979 41.9381 83.0299 41.984 83.1657 42.0113C83.3222 42.043 83.4803 42.0647 83.6392 42.0765C83.8037 42.0765 83.9452 42.1014 84.0693 42.1169V42.3283L79.5684 42.35V42.1356C79.6925 42.1356 79.8369 42.0983 80.0072 42.0641C80.1706 42.0331 80.3317 41.9894 80.4893 41.9336C80.6254 41.8911 80.7542 41.825 80.8704 41.7378C80.917 41.7111 80.9558 41.6712 80.9828 41.6225C81.0098 41.5737 81.0238 41.5179 81.0235 41.4612L80.983 30.584C80.9854 30.5041 80.9757 30.4243 80.9542 30.3478C80.9171 30.2762 80.8634 30.2163 80.7983 30.1738C80.6886 30.1085 80.5095 30.0122 80.267 29.891C80.0245 29.7698 79.8311 29.6734 79.6896 29.6082V29.4901L82.3804 28.3402H82.4901V30.5374L82.5103 30.5778C82.6778 30.3292 82.8654 30.0712 83.0704 29.8102C83.2761 29.5453 83.5063 29.3037 83.7575 29.0892C84.0098 28.8728 84.2862 28.6911 84.5804 28.5484C84.8851 28.4002 85.216 28.3249 85.5504 28.3278C86.0709 28.3045 86.588 28.4266 87.0517 28.6821C87.4609 28.9207 87.8158 29.254 88.0911 29.6579C88.3693 30.0723 88.5774 30.5362 88.706 31.0284C88.8418 31.5334 88.9108 32.0566 88.911 32.5823C88.9211 33.2798 88.8034 33.9725 88.5645 34.621V34.6303ZM87.1066 31.7898C87.0051 31.3841 86.8337 31.0024 86.6013 30.6648C86.3707 30.3428 86.0744 30.0823 85.7352 29.9034C85.358 29.7093 84.9434 29.6145 84.5255 29.6268C84.2352 29.6214 83.9473 29.6851 83.6825 29.8133C83.4532 29.9258 83.2403 30.0734 83.0502 30.2515C82.8912 30.3919 82.7563 30.5612 82.6518 30.7518C82.582 30.8641 82.5357 30.9913 82.5161 31.1248C82.5161 31.3858 82.5161 31.6655 82.5161 31.9576C82.5161 32.2498 82.5161 32.5108 82.5161 32.7346C82.5161 33.2691 82.5161 33.6887 82.5161 33.9777C82.5161 34.2667 82.5161 34.5775 82.5392 34.8789C82.566 35.1652 82.6084 35.4496 82.6662 35.7305C82.7254 36.0159 82.832 36.2876 82.9809 36.5323C83.1314 36.7798 83.3381 36.982 83.5814 37.1196C83.8862 37.2808 84.2238 37.3567 84.563 37.3403C84.921 37.3396 85.2718 37.2321 85.5764 37.0295C85.9161 36.8071 86.2107 36.5133 86.4425 36.1656C86.71 35.7653 86.9139 35.32 87.0459 34.8479C87.1981 34.307 87.2721 33.7441 87.2654 33.179C87.2662 32.709 87.2099 32.241 87.0979 31.7867" fill="black"/>
<path d="M11.0861 19.1132V18.8646C11.1986 18.8543 11.3105 18.8367 11.421 18.8118C11.6122 18.7751 11.7991 18.7157 11.9782 18.6346C12.1637 18.5524 12.3332 18.4332 12.4777 18.2834C12.5496 18.2095 12.6063 18.1201 12.6441 18.0211C12.6819 17.922 12.7 17.8155 12.6971 17.7085C12.6776 17.4585 12.6331 17.2116 12.5643 16.972C12.4777 16.6332 12.3564 16.2168 12.2005 15.7288C12.0446 15.2409 11.8656 14.6939 11.6606 14.0941C11.4556 13.4943 11.2391 12.8728 11.0052 12.2295L4.83842 12.2574C4.60746 12.8914 4.38515 13.4954 4.17151 14.0693C3.95786 14.6473 3.74422 15.2254 3.53057 15.8096C3.27924 16.4105 3.11751 17.0503 3.05132 17.7054C3.04579 17.9033 3.11326 18.0954 3.23898 18.2399C3.37523 18.3882 3.53704 18.5064 3.71535 18.588C3.91612 18.6801 4.12647 18.7459 4.34185 18.7838C4.56704 18.8242 4.7778 18.8615 4.97989 18.8926V19.1412L0.0429688 19.166V18.8926C0.406234 18.8537 0.757619 18.7318 1.07366 18.5352C1.25403 18.4342 1.42104 18.3078 1.57024 18.1591C1.76999 17.902 1.94688 17.6252 2.09858 17.3325C2.43393 16.7115 2.73378 16.069 2.99646 15.4087C3.31597 14.6256 3.67493 13.7336 4.07335 12.7329L5.30325 9.6438C5.72476 8.58716 6.14147 7.52119 6.55336 6.44589C6.96525 5.3706 7.35501 4.36575 7.72263 3.43134L7.49455 2.88748C7.76095 2.75938 8.01281 2.5988 8.24519 2.40888C8.45239 2.23398 8.64555 2.04062 8.82261 1.83084C8.97721 1.65086 9.11907 1.45868 9.24701 1.2559C9.3625 1.07254 9.45199 0.923363 9.51262 0.805267H9.6974L11.0803 4.72729C11.5192 5.9704 11.9378 7.16172 12.3362 8.30124C12.7346 9.44076 13.1196 10.5502 13.491 11.6297C13.8664 12.6988 14.2417 13.7575 14.617 14.8058C14.7902 15.3217 14.949 15.7382 15.0963 16.0862C15.2435 16.4343 15.4109 16.8135 15.5986 17.2454C15.6304 17.3107 15.7025 17.4288 15.8094 17.5966C15.9421 17.7862 16.0931 17.9601 16.2598 18.1156C16.4591 18.303 16.6828 18.458 16.9238 18.5756C17.2172 18.7142 17.5331 18.7892 17.8534 18.7962V19.107L11.0861 19.1132ZM7.98824 4.00628C7.89297 4.22383 7.76016 4.56569 7.58405 5.03185C7.40794 5.49802 7.1914 6.06364 6.93156 6.73181C6.67173 7.39998 6.38302 8.15207 6.06544 8.99428L5.04341 11.7291L10.8176 11.7043C10.5491 10.9553 10.2806 10.2094 10.0092 9.46044C9.73782 8.71147 9.46932 7.99357 9.20948 7.30675C8.94964 6.61993 8.72445 5.99527 8.51369 5.41411C8.30294 4.83295 8.12682 4.36989 7.98824 4.00628Z" fill="black"/>
<path d="M17.5039 19.0851V18.8116C17.9828 18.8007 18.458 18.7181 18.9157 18.5661C19.0214 18.524 19.112 18.4469 19.1742 18.3457C19.2365 18.2446 19.2673 18.1248 19.2621 18.0036L19.2044 3.65191C19.2085 3.5521 19.1967 3.45227 19.1698 3.35667C19.1251 3.26276 19.0558 3.18498 18.9705 3.13291L18.3441 2.74755C18.1196 2.60308 17.8861 2.47537 17.6454 2.36529V2.21612L20.9569 1.02274H21.1186L21.1879 18.1155C21.1773 18.25 21.2156 18.3836 21.2947 18.4884C21.3793 18.5799 21.4883 18.6407 21.6065 18.6625C21.7824 18.7004 21.9612 18.7202 22.1406 18.7215C22.3571 18.7215 22.6112 18.7495 22.9057 18.7806V19.0478L17.5039 19.0851Z" fill="black"/>
<path d="M23.4492 19.0479V18.7744C23.9281 18.7635 24.4033 18.6809 24.861 18.5289C24.9667 18.4868 25.0573 18.4096 25.1195 18.3085C25.1818 18.2074 25.2126 18.0876 25.2075 17.9664L25.1497 3.61783C25.1547 3.51265 25.1419 3.40737 25.1122 3.30705C25.0679 3.21388 24.9997 3.13625 24.9159 3.08329L24.2865 2.69793C24.0629 2.55358 23.8304 2.42586 23.5907 2.31567V2.1665L26.8993 0.976227H27.061L27.1303 18.0689C27.1216 18.2042 27.1596 18.3381 27.2371 18.445C27.3229 18.5359 27.4329 18.5956 27.5518 18.6159C27.7267 18.6539 27.9046 18.6736 28.083 18.675C28.3024 18.675 28.5565 18.7029 28.851 18.734V19.0479H23.4492Z" fill="black"/>
<path d="M44.6048 18.9579V18.7092C44.7182 18.6989 44.831 18.6812 44.9426 18.6564C45.1325 18.6179 45.3182 18.5585 45.4969 18.4793C45.6861 18.3955 45.8579 18.2719 46.0021 18.1157C46.0745 18.0421 46.1315 17.9527 46.1693 17.8536C46.2072 17.7545 46.225 17.6478 46.2215 17.5407C46.2035 17.2906 46.159 17.0434 46.0887 16.8042C46.0021 16.4654 45.8809 16.049 45.725 15.5611C45.5691 15.0732 45.3901 14.5293 45.1851 13.9295C44.9801 13.3297 44.7636 12.7081 44.5297 12.0648L38.3629 12.0928C38.1338 12.7268 37.9125 13.3307 37.6988 13.9046C37.4823 14.4796 37.2716 15.0607 37.0579 15.6419C36.8063 16.2439 36.6437 16.8846 36.5758 17.5407C36.5707 17.7394 36.6381 17.9324 36.7634 18.0784C36.8997 18.228 37.0628 18.3464 37.2427 18.4264C37.4419 18.521 37.6514 18.5878 37.8663 18.6253L38.5072 18.7341V18.9827L33.5703 19.0045V18.7372C33.9336 18.7007 34.2853 18.5799 34.601 18.3829C34.7819 18.2829 34.949 18.1564 35.0976 18.0069C35.2975 17.751 35.4744 17.4752 35.6259 17.1833C35.9584 16.5611 36.2572 15.9188 36.5209 15.2596C36.8423 14.4702 37.2003 13.5762 37.5949 12.5776L38.8219 9.48849C39.2434 8.43185 39.6601 7.36589 40.072 6.2906C40.4839 5.21531 40.8747 4.21046 41.2442 3.27606L41.0103 2.72909C41.2772 2.60195 41.5292 2.4413 41.761 2.2505C41.9683 2.07687 42.1615 1.88453 42.3384 1.67556C42.5016 1.49533 42.653 1.30323 42.7917 1.10062C42.91 0.914155 42.9967 0.764981 43.0602 0.649994H43.2421C43.7271 2.02777 44.189 3.33511 44.6279 4.572C45.0667 5.80889 45.4844 7.0002 45.8809 8.14594C46.2793 9.29167 46.6642 10.4001 47.0357 11.4713C47.4139 12.5434 47.7863 13.6032 48.1617 14.6505C48.3349 15.1633 48.4937 15.5828 48.6409 15.9309L49.1433 17.0901C49.2069 17.2106 49.2773 17.3269 49.354 17.4382C49.4793 17.6248 49.6236 17.7958 49.7842 17.9478C49.9814 18.1359 50.2044 18.29 50.4454 18.4047C50.7381 18.5459 51.0543 18.622 51.375 18.6284V18.9392L44.6048 18.9579ZM41.5069 3.851C41.4145 4.06543 41.2817 4.40729 41.1056 4.87345C40.9295 5.33962 40.7101 5.90834 40.4503 6.57651C40.1904 7.24468 39.9046 7.99676 39.5841 8.83586C39.2637 9.67496 38.9316 10.5918 38.565 11.5738L44.3392 11.5458C44.0735 10.8 43.8022 10.0541 43.5308 9.30513C43.2594 8.55616 42.9909 7.83827 42.7339 7.15145L42.0295 5.25882C41.8187 4.68388 41.6455 4.21461 41.504 3.851" fill="black"/>
<path d="M60.4523 16.7264C60.1718 17.172 59.829 17.5683 59.436 17.9011C59.0346 18.2472 58.5804 18.5154 58.0935 18.6936C56.8831 19.1262 55.5674 19.0665 54.3951 18.5258C53.7722 18.2276 53.2166 17.7876 52.7668 17.2361C52.3062 16.6587 51.9463 15.9964 51.7044 15.2813C51.4443 14.5146 51.3124 13.7045 51.3146 12.8883C51.3036 11.3406 51.8262 9.84349 52.7813 8.68658C53.2467 8.13244 53.8075 7.68073 54.4327 7.35645C55.0863 7.0178 55.8033 6.84453 56.5287 6.84988C57.0365 6.84726 57.5427 6.91198 58.0358 7.04256C58.5007 7.16068 58.9471 7.35122 59.3609 7.60818C59.7322 7.84405 60.053 8.16178 60.3021 8.54051C60.5447 8.91257 60.6729 9.35707 60.6688 9.81159C60.6644 10.1539 60.5367 10.4809 60.3126 10.7238C60.0886 10.9667 59.7857 11.1065 59.4678 11.1137C59.2125 11.1173 58.9631 11.0311 58.7575 10.8682C58.5588 10.7184 58.4148 10.4986 58.3505 10.2467C58.4312 9.97249 58.4692 9.68581 58.4631 9.39826C58.4778 8.84207 58.3113 8.29785 57.9925 7.85991C57.8164 7.6435 57.5957 7.47454 57.348 7.3666C57.1003 7.25865 56.8326 7.21473 56.5662 7.23835C56.0988 7.23817 55.6406 7.37922 55.244 7.64547C54.8323 7.92184 54.4792 8.28817 54.2075 8.72076C53.9014 9.20441 53.6684 9.73728 53.5175 10.2995C53.3463 10.9228 53.2626 11.5702 53.2692 12.2201C53.2657 12.9179 53.3631 13.612 53.5579 14.2775C53.7207 14.8611 53.9863 15.4055 54.3403 15.8811C54.6784 16.3167 55.1038 16.6642 55.5846 16.8973C56.1015 17.1435 56.6623 17.2645 57.2274 17.2516C58.0129 17.2901 58.7944 17.1103 59.4966 16.7295C60.0733 16.3634 60.5502 15.8403 60.8795 15.2129L61.0672 15.3124C60.9275 15.8146 60.7183 16.2913 60.4465 16.7264" fill="black"/>
<path d="M70.6993 16.6767C70.4197 17.124 70.0768 17.5214 69.6831 17.8545C69.2782 18.2019 68.82 18.4701 68.329 18.647C67.8035 18.8374 67.2523 18.9329 66.6978 18.9298C65.9868 18.9404 65.2819 18.7867 64.6307 18.4792C64.0066 18.1803 63.4508 17.738 63.0024 17.1833C62.5407 16.6067 62.1806 15.9442 61.9399 15.2285C61.6815 14.4605 61.5524 13.6491 61.5588 12.8324C61.5524 12.0518 61.6827 11.2769 61.9428 10.5482C62.1909 9.84367 62.558 9.19463 63.0255 8.63382C63.4909 8.07969 64.0517 7.62798 64.6769 7.3037C65.3256 6.96929 66.0363 6.79718 66.7556 6.80024C67.2633 6.7988 67.7693 6.8635 68.2626 6.99292C68.7297 7.10867 69.1789 7.29601 69.5965 7.54921C69.9684 7.78416 70.2893 8.10205 70.5377 8.48154C70.7803 8.85359 70.9085 9.29809 70.9043 9.75261C70.9053 9.99173 70.8448 10.2265 70.7295 10.4309C70.6142 10.6353 70.4486 10.8014 70.2511 10.9108C70.0536 11.0201 69.8318 11.0685 69.6102 11.0506C69.3887 11.0327 69.1761 10.9492 68.996 10.8092C68.7961 10.6599 68.6511 10.44 68.586 10.1877C68.6667 9.91351 68.7048 9.62683 68.6986 9.33928C68.7153 8.78672 68.553 8.24511 68.2395 7.80716C67.9508 7.39693 67.46 7.1856 66.8104 7.20114C66.3449 7.19849 65.8882 7.33862 65.4939 7.60515C65.0828 7.88464 64.7292 8.25161 64.4546 8.68354C64.1484 9.16605 63.9155 9.6979 63.7646 10.2592C63.5933 10.8835 63.5096 11.5319 63.5163 12.1829C63.5127 12.8806 63.6101 13.5747 63.805 14.2402C63.9707 14.8212 64.2404 15.3618 64.5989 15.8314C64.9361 16.2688 65.3617 16.6175 65.8433 16.8507C66.3578 17.0943 66.9153 17.2151 67.4774 17.205C68.2636 17.2407 69.0453 17.061 69.7495 16.6829C70.3258 16.3153 70.8033 15.7926 71.1353 15.1663L71.3201 15.2658C71.181 15.7673 70.9717 16.2431 70.6993 16.6767Z" fill="black"/>
<path d="M71.7734 18.8305V18.5819L72.3278 18.5198C72.4982 18.4961 72.6657 18.4523 72.8272 18.3892C72.9639 18.3366 73.0895 18.2552 73.1968 18.1499C73.2458 18.1028 73.2846 18.0448 73.3105 17.9798C73.3364 17.9148 73.3489 17.8446 73.3469 17.7739L73.3123 9.21509C73.3143 9.09777 73.3017 8.9807 73.2747 8.86701C73.2413 8.75377 73.1718 8.6569 73.0784 8.59353C72.9186 8.47802 72.7517 8.3742 72.5789 8.28275C72.3855 8.18641 72.1776 8.09629 71.9611 8.01238V7.8632L75.0878 6.75062H75.2264L75.2697 17.9044C75.2791 17.9757 75.3015 18.0443 75.3357 18.1062C75.3699 18.1681 75.4152 18.222 75.4689 18.2649C75.5781 18.344 75.7007 18.3989 75.8298 18.4265C75.979 18.4601 76.1307 18.4799 76.2831 18.4856C76.4421 18.4935 76.6004 18.5143 76.7566 18.5477V18.7964L71.7734 18.8305ZM75.0416 3.77959C74.926 3.90746 74.7871 4.00824 74.6335 4.07563C74.48 4.14301 74.3152 4.17553 74.1495 4.17117C73.8184 4.16956 73.5011 4.02789 73.2662 3.77672C73.0312 3.52556 72.8974 3.18503 72.8936 2.82861C72.8891 2.65513 72.9183 2.48255 72.9795 2.32198C73.0407 2.1614 73.1324 2.01639 73.2487 1.89628C73.3658 1.77222 73.5049 1.67473 73.6576 1.6096C73.8104 1.54447 73.9737 1.51303 74.138 1.51713C74.3025 1.51201 74.4663 1.54206 74.6199 1.60554C74.7735 1.66902 74.9139 1.76467 75.033 1.88696C75.1513 2.00901 75.2446 2.15642 75.3068 2.31969C75.3689 2.48296 75.3986 2.65845 75.3939 2.83483C75.3994 3.01233 75.371 3.18917 75.3104 3.35436C75.2498 3.51956 75.1583 3.66958 75.0416 3.79513" fill="black"/>
<path d="M86.4016 18.8397H86.263V16.3535H86.2399C85.8686 17.109 85.3252 17.7506 84.6607 18.2182C83.9682 18.648 83.1788 18.8631 82.3799 18.8397C81.8098 18.8452 81.2448 18.7246 80.7198 18.4855C80.1662 18.2377 79.6725 17.8572 79.2762 17.3729C78.8364 16.8246 78.4965 16.192 78.2744 15.5082C78.0105 14.6859 77.8815 13.8204 77.8933 12.9505C77.884 12.1208 78.0262 11.2971 78.312 10.5264C78.5851 9.79192 78.9925 9.12399 79.5101 8.5623C80.0405 7.99198 80.6731 7.54367 81.3694 7.2446C82.1368 6.9036 82.9585 6.72628 83.7888 6.72249C84.2272 6.71774 84.6651 6.75728 85.0966 6.84059C85.4775 6.91926 85.8535 7.02305 86.2226 7.15137C86.2226 6.89964 86.1937 6.56089 86.185 6.1258C86.1764 5.69071 86.185 5.25562 86.1677 4.80499C86.1504 4.35436 86.1677 3.94102 86.1677 3.56188C86.1677 3.18273 86.1677 2.86884 86.1677 2.68859L84.2622 1.92407V1.77179L87.9433 0.656097H88.1194L88.1829 16.8508C88.4058 16.9801 88.6375 17.0912 88.8758 17.1833C89.2165 17.3294 89.5341 17.4692 89.8257 17.6028V17.7769L86.4016 18.8397ZM86.2024 9.45734C85.8866 8.81143 85.4396 8.25054 84.8945 7.81643C84.4817 7.44664 83.9698 7.22882 83.4336 7.19488C82.89 7.17975 82.3544 7.33875 81.8948 7.65172C81.4632 7.96023 81.1036 8.37182 80.8439 8.85443C80.5546 9.38931 80.3497 9.97217 80.2376 10.5793C80.107 11.2359 80.0431 11.906 80.0471 12.5776C80.049 13.2467 80.1295 13.9129 80.2867 14.5603C80.4288 15.163 80.6661 15.7349 80.9883 16.251C81.2896 16.7288 81.6836 17.1306 82.1431 17.4288C82.6248 17.7329 83.1756 17.8867 83.7339 17.8732C84.3397 17.882 84.9245 17.6343 85.3622 17.1833C85.8219 16.7071 86.1258 16.0834 86.2284 15.4056L86.2024 9.45734Z" fill="black"/>
<path d="M99.9729 16.1422C99.7528 16.6135 99.4599 17.0412 99.1068 17.407C98.717 17.8046 98.2669 18.1273 97.7758 18.3611C97.2304 18.6203 96.6397 18.7507 96.0436 18.7434C95.3043 18.7545 94.5712 18.5966 93.8927 18.2803C93.2538 17.9764 92.6864 17.5218 92.2326 16.9502C91.7624 16.3574 91.401 15.6741 91.1673 14.9363C90.9156 14.1451 90.7878 13.3144 90.7891 12.4781C90.7935 11.0387 91.2584 9.64482 92.1056 8.53116C92.531 7.97472 93.0576 7.51783 93.6531 7.18859C94.2774 6.84055 94.971 6.66135 95.674 6.66648C96.2496 6.65983 96.8232 6.74145 97.3774 6.90889C97.8841 7.05872 98.3581 7.31542 98.7719 7.66409C99.1752 8.01195 99.505 8.44848 99.7391 8.9445C100.001 9.5115 100.154 10.1301 100.187 10.7626L92.7379 10.7967C92.7378 10.9514 92.7301 11.106 92.7148 11.2598C92.7003 11.4338 92.6945 11.6141 92.6945 11.7975C92.6958 12.4785 92.7932 13.1555 92.9833 13.8051C93.1583 14.4178 93.4362 14.9908 93.8032 15.4957C94.1621 15.9896 94.624 16.3857 95.1515 16.6518C95.7404 16.9426 96.3832 17.085 97.031 17.0683C97.75 17.079 98.455 16.8535 99.0519 16.4219C99.5898 16.0603 99.9971 15.5122 100.207 14.868L100.392 14.9177C100.311 15.3516 100.172 15.7705 99.9787 16.1608L99.9729 16.1422ZM97.2908 7.76975C97.0823 7.54777 96.8333 7.37486 96.5594 7.26198C96.2856 7.14909 95.9929 7.0987 95.7 7.11401C95.283 7.11535 94.8777 7.2626 94.5452 7.53356C94.2013 7.80375 93.8976 8.12859 93.6444 8.49698C93.408 8.8405 93.2139 9.21551 93.067 9.61267C92.9582 9.89043 92.8741 10.1787 92.8158 10.4735H93.7686H94.5914L95.4373 10.4425C95.726 10.4425 96.0522 10.4269 96.4102 10.4269C96.6412 10.4269 96.8577 10.4176 97.0598 10.3989C97.2416 10.3839 97.4205 10.341 97.5911 10.2715C97.6852 10.1567 97.7666 10.0305 97.8336 9.89548C97.8951 9.7287 97.9217 9.54938 97.9115 9.37027C97.9145 9.07708 97.8632 8.78618 97.7606 8.51458C97.658 8.24297 97.5061 7.9961 97.3139 7.7884" fill="black"/>
<path d="M107.821 18.6626V18.3891C108.157 18.3693 108.491 18.3131 108.817 18.2213C108.928 18.2022 109.029 18.1389 109.099 18.044C109.169 17.9491 109.203 17.8294 109.195 17.7085L109.169 11.4215C109.194 10.6111 109.012 9.80889 108.641 9.10307C108.296 8.51466 107.719 8.22253 106.909 8.22668C106.461 8.21165 106.019 8.33573 105.635 8.58407C105.225 8.88147 104.846 9.22528 104.504 9.60963L104.535 17.7955C104.554 17.9321 104.612 18.0591 104.7 18.1591C104.783 18.2354 104.882 18.2897 104.989 18.3176C105.109 18.3531 105.233 18.3739 105.358 18.3798C105.507 18.3883 105.654 18.408 105.8 18.4388V18.6905L101.328 18.7092V18.4575C101.642 18.4358 101.951 18.3592 102.243 18.2306C102.355 18.1913 102.453 18.1143 102.522 18.0108C102.59 17.9073 102.626 17.7828 102.624 17.6557L102.59 9.07199C102.594 8.96681 102.582 8.86154 102.552 8.76121C102.507 8.66757 102.439 8.58906 102.356 8.53434L101.868 8.25154C101.68 8.14276 101.495 8.04953 101.311 7.96562V7.81645L104.342 6.61685H104.481V9.31129L104.527 9.33615C104.719 9.01728 104.93 8.71209 105.159 8.42247C105.415 8.09853 105.704 7.8057 106.019 7.54918C106.346 7.27886 106.703 7.05434 107.082 6.88101C107.462 6.70681 107.87 6.61595 108.283 6.61374C108.682 6.58947 109.081 6.67349 109.442 6.85811C109.803 7.04273 110.115 7.32203 110.35 7.67038C110.858 8.48771 111.112 9.45691 111.078 10.4394L111.106 17.7738C111.106 17.8349 111.119 17.8953 111.145 17.9495C111.171 18.0037 111.21 18.0501 111.257 18.0845C111.365 18.1694 111.488 18.2316 111.617 18.2679C111.766 18.3113 111.918 18.3435 112.071 18.3642C112.232 18.3891 112.385 18.4109 112.524 18.4264V18.6501L107.821 18.6626Z" fill="black"/>
<path d="M120.346 8.32302L116.821 8.34167L116.847 14.9022C116.847 15.7496 117.019 16.3649 117.364 16.7482C117.535 16.9372 117.742 17.0852 117.971 17.1826C118.199 17.2801 118.444 17.3248 118.689 17.3138C119.072 17.3284 119.453 17.2453 119.8 17.0714C120.108 16.8981 120.37 16.6449 120.563 16.3349L120.701 16.4095C120.597 16.6791 120.47 16.938 120.323 17.1833C120.149 17.4716 119.93 17.726 119.676 17.9354C119.39 18.1685 119.069 18.3472 118.726 18.4637C118.31 18.5986 117.877 18.6636 117.442 18.6564C117.124 18.6589 116.808 18.6054 116.506 18.4979C116.217 18.3968 115.949 18.2376 115.715 18.0286C115.489 17.8323 115.293 17.5971 115.138 17.3325C115.001 17.0963 114.925 16.8247 114.918 16.5462C114.918 14.982 114.918 13.4975 114.918 12.0928C114.918 10.688 114.918 9.43561 114.918 8.33545H113.227V8.06197L116.552 4.6434H116.737V6.81885L121.025 6.7971L120.346 8.32302Z" fill="black"/>
<path d="M128.92 16.6051C128.691 17.0702 128.362 17.4697 127.961 17.7705C127.546 18.0809 127.079 18.3034 126.587 18.4262C126.052 18.5646 125.503 18.6344 124.953 18.6344C124.307 18.6384 123.662 18.5749 123.027 18.4449C122.452 18.3225 121.891 18.1317 121.355 17.8761V14.5819H121.54C121.664 14.9797 121.829 15.3993 122.005 15.8406C122.188 16.2722 122.414 16.6807 122.681 17.0588C122.938 17.4326 123.261 17.7492 123.63 17.9911C124.031 18.2385 124.488 18.3611 124.95 18.3454C125.271 18.3615 125.593 18.3085 125.895 18.1895C126.198 18.0705 126.475 17.8879 126.711 17.6524C127.15 17.1924 127.366 16.4901 127.361 15.5391C127.367 15.304 127.331 15.0699 127.253 14.8501C127.175 14.6303 127.058 14.4293 126.907 14.2587C126.57 13.8991 126.137 13.6604 125.669 13.575C125.253 13.4942 124.852 13.4072 124.468 13.3077C124.116 13.2239 123.768 13.1202 123.426 12.997C122.854 12.7959 122.355 12.4054 122.002 11.8813C121.63 11.3235 121.436 10.6504 121.451 9.9638C121.441 9.47937 121.54 8.99952 121.739 8.56531C121.939 8.15111 122.214 7.78437 122.548 7.48692C122.899 7.17981 123.299 6.94488 123.729 6.79389C124.195 6.63178 124.682 6.54997 125.172 6.55148C125.748 6.53987 126.324 6.60036 126.887 6.73173C127.369 6.84848 127.842 7.00007 128.305 7.18547L128.593 10.2932L128.406 10.3461C128.189 9.8457 127.97 9.38576 127.753 8.9631C127.554 8.56812 127.311 8.20077 127.029 7.86917C126.778 7.57044 126.473 7.32942 126.134 7.1606C125.77 6.98859 125.376 6.90579 124.979 6.9182C124.714 6.9181 124.452 6.9697 124.205 7.07048C123.948 7.16764 123.712 7.32146 123.513 7.52213C123.315 7.72279 123.157 7.96589 123.05 8.23589C122.922 8.55546 122.86 8.90112 122.868 9.24902C122.848 9.49522 122.881 9.74319 122.967 9.97271C123.052 10.2022 123.186 10.4068 123.359 10.5698C123.729 10.8547 124.148 11.0556 124.592 11.1603C124.933 11.2411 125.302 11.3281 125.706 11.4182C126.11 11.5084 126.454 11.5923 126.751 11.6731C127.437 11.8372 128.061 12.222 128.539 12.7763C129.031 13.3628 129.296 14.1304 129.278 14.9207C129.293 15.5051 129.172 16.0843 128.925 16.6051" fill="black"/>
</svg>
