<svg width="212" height="37" viewBox="0 0 212 37" fill="none" xmlns="http://www.w3.org/2000/svg">
<g clip-path="url(#clip0_5397_1286)">
<path d="M56.8378 14.573H54.5879V1.66251H56.8766L56.8378 14.573Z" fill="black"/>
<path d="M59.0401 9.70556C58.9844 8.44612 59.3559 7.20385 60.0972 6.17078C60.4191 5.73496 60.8453 5.38232 61.3388 5.1435C61.8323 4.90467 62.3782 4.78687 62.929 4.80034C63.4059 4.78384 63.8805 4.87114 64.3183 5.05588C64.7562 5.24063 65.1463 5.51818 65.4602 5.86833V0.953659H67.6714V14.573H65.6639L65.5572 13.5806C65.2377 13.9601 64.8324 14.2625 64.3732 14.4642C63.9139 14.6658 63.413 14.7613 62.9096 14.7431C62.3663 14.7566 61.8279 14.6405 61.3411 14.4049C60.8543 14.1694 60.434 13.8215 60.1166 13.3916C59.346 12.3143 58.9671 11.0168 59.0401 9.70556ZM61.2513 9.88514C61.2032 10.6874 61.4061 11.4849 61.8332 12.1724C62.0096 12.4363 62.2535 12.6508 62.5409 12.795C62.8283 12.9392 63.1492 13.008 63.4721 12.9946C63.8779 13.0009 64.2769 12.8927 64.621 12.6831C64.9651 12.4735 65.2397 12.1714 65.4117 11.8132V7.72079C65.2405 7.36411 64.9652 7.06451 64.6202 6.85944C64.2752 6.65437 63.8759 6.5529 63.4721 6.56773C63.1471 6.55835 62.8249 6.62873 62.5352 6.77241C62.2454 6.9161 61.9973 7.12846 61.8138 7.38999C61.3812 8.15068 61.1857 9.01781 61.2513 9.88514Z" fill="black"/>
<path d="M74.3049 14.7431C73.6773 14.7679 73.0513 14.6666 72.4657 14.4454C71.8801 14.2243 71.3474 13.8881 70.9008 13.4577C70.4555 13.0002 70.1099 12.4595 69.8849 11.8682C69.6599 11.2769 69.5601 10.6473 69.5916 10.0175V9.75282C69.577 8.86746 69.7728 7.99081 70.1638 7.19152C70.5127 6.4678 71.0683 5.85745 71.764 5.43358C72.4469 5.00886 73.2427 4.7887 74.0527 4.80034C74.6328 4.76851 75.2129 4.86409 75.75 5.08003C76.2872 5.29596 76.7677 5.62673 77.1561 6.04791C77.9489 7.05778 78.3384 8.31394 78.252 9.5827V10.4522H71.8222C71.8477 11.1581 72.1375 11.8305 72.6368 12.3425C72.8718 12.5705 73.1522 12.7494 73.4607 12.868C73.7693 12.9867 74.0994 13.0426 74.4309 13.0324C74.9091 13.0392 75.3821 12.9347 75.8105 12.7275C76.2389 12.5204 76.6104 12.2167 76.8942 11.8416L78.0774 12.9474C77.6881 13.5228 77.1449 13.9837 76.5063 14.28C75.82 14.6006 75.0658 14.7593 74.3049 14.7431ZM74.043 6.52993C73.7697 6.51609 73.4965 6.56146 73.2433 6.66278C72.9901 6.76411 72.7631 6.91886 72.5786 7.11591C72.1678 7.60621 71.9178 8.20552 71.8609 8.83605H76.0699V8.72263C76.0617 8.13782 75.8535 7.57239 75.4783 7.11591C75.2978 6.9216 75.0757 6.76838 74.8276 6.66711C74.5796 6.56584 74.3117 6.519 74.043 6.52993Z" fill="black"/>
<path d="M82.0245 4.97992L82.0827 6.08572C82.4304 5.66422 82.8748 5.32828 83.3802 5.105C83.8856 4.88172 84.4377 4.77736 84.9921 4.80034C87.0384 4.80034 88.0858 5.94395 88.1149 8.23116V14.573H85.8746V8.35403C85.9139 7.87004 85.7689 7.38892 85.4673 7.00249C85.2897 6.84302 85.0796 6.72186 84.8506 6.64695C84.6217 6.57203 84.3791 6.54504 84.1387 6.56773C83.7345 6.56293 83.3372 6.67066 82.9937 6.87826C82.6501 7.08586 82.3744 7.38471 82.1991 7.7397V14.573H79.9395V4.97992H82.0245Z" fill="black"/>
<path d="M93.0983 2.64545V4.97992H94.8342V6.57719H93.0983V11.9266C93.0735 12.2087 93.1525 12.4901 93.3214 12.7205C93.4299 12.8119 93.5563 12.8808 93.693 12.9231C93.8298 12.9653 93.9739 12.98 94.1166 12.9663C94.3783 12.9675 94.6391 12.9357 94.8924 12.8718V14.5446C94.4186 14.6728 93.9295 14.7395 93.4377 14.7431C91.7406 14.7431 90.8871 13.798 90.8871 12.0117V6.57719H89.2676V4.97992H90.8871V2.64545H93.0983Z" fill="black"/>
<path d="M96.5319 2.48477C96.5269 2.33391 96.5526 2.18359 96.6075 2.04246C96.6625 1.90133 96.7455 1.7722 96.8519 1.66251C97.1109 1.4493 97.439 1.33233 97.7781 1.33233C98.1171 1.33233 98.4452 1.4493 98.7042 1.66251C98.8137 1.77048 98.8994 1.8991 98.9561 2.04049C99.0128 2.18188 99.0393 2.33306 99.034 2.48477C99.0385 2.63498 99.0117 2.78452 98.955 2.92427C98.8983 3.06402 98.813 3.19104 98.7042 3.29758C98.4428 3.50563 98.1156 3.61926 97.7781 3.61926C97.4405 3.61926 97.1133 3.50563 96.8519 3.29758C96.7462 3.18932 96.6636 3.06178 96.6087 2.9223C96.5537 2.78281 96.5276 2.63412 96.5319 2.48477ZM98.8788 14.573H96.6676V4.97991H98.8788V14.573Z" fill="black"/>
<path d="M104.048 2.64545V4.97992H105.783V6.57719H104.048V11.9266C104.018 12.2091 104.098 12.4921 104.271 12.7205C104.378 12.8134 104.504 12.8832 104.641 12.9256C104.778 12.9679 104.923 12.9817 105.066 12.9663C105.324 12.9669 105.582 12.9351 105.832 12.8718V14.5446C105.358 14.6735 104.869 14.7402 104.377 14.7431C102.68 14.7431 101.836 13.798 101.836 12.0117V6.57719H100.217V4.97992H101.836V2.64545H104.048Z" fill="black"/>
<path d="M110.924 11.4824L112.922 4.97992H115.278L111.399 16.019C110.798 17.6352 109.78 18.448 108.344 18.448C107.983 18.4413 107.624 18.3872 107.277 18.2873V16.5672H107.694C108.136 16.5987 108.576 16.4963 108.955 16.2742C109.279 16.0156 109.513 15.6657 109.624 15.2724L109.944 14.4501L106.453 4.97992H108.839L110.924 11.4824Z" fill="black"/>
<path d="M129.147 8.80769H123.707V12.7867H130.059V14.5824H121.398V1.66251H130.001V3.4677H123.707V7.03084H129.147V8.80769Z" fill="black"/>
<path d="M135.257 8.13665L137.129 4.97992H139.592L136.576 9.70557L139.689 14.573H137.245L135.305 11.2934L133.366 14.573H130.912L134.025 9.70557L131.019 4.97992H133.463L135.257 8.13665Z" fill="black"/>
<path d="M149.707 9.86624C149.771 11.1311 149.403 12.3808 148.66 13.4199C148.342 13.8445 147.922 14.187 147.437 14.4175C146.952 14.6481 146.416 14.7599 145.877 14.7431C145.398 14.7646 144.919 14.6855 144.474 14.511C144.029 14.3365 143.628 14.0708 143.297 13.7318V18.2779H141.086V5.04607H143.123L143.22 5.9912C143.54 5.61286 143.945 5.31188 144.404 5.11183C144.864 4.91178 145.364 4.81811 145.867 4.83815C146.403 4.81573 146.936 4.91908 147.422 5.13948C147.908 5.35988 148.333 5.69089 148.66 6.10462C149.396 7.17417 149.753 8.4484 149.678 9.73392L149.707 9.86624ZM147.506 9.68666C147.55 8.88777 147.348 8.09431 146.924 7.4089C146.741 7.14111 146.491 6.92331 146.197 6.7761C145.904 6.6289 145.576 6.55718 145.246 6.56773C144.85 6.54462 144.454 6.63522 144.11 6.82836C143.765 7.0215 143.486 7.30873 143.307 7.65463V11.9077C143.483 12.2581 143.76 12.5505 144.105 12.7488C144.45 12.947 144.847 13.0423 145.246 13.023C145.57 13.0308 145.89 12.9596 146.178 12.816C146.466 12.6724 146.712 12.4609 146.895 12.2007C147.351 11.4408 147.564 10.5653 147.506 9.68666Z" fill="black"/>
<path d="M155.912 14.7431C155.29 14.764 154.669 14.6607 154.089 14.4397C153.509 14.2187 152.981 13.8846 152.538 13.4577C152.092 13.0002 151.747 12.4595 151.522 11.8682C151.297 11.2769 151.197 10.6473 151.228 10.0175V9.75282C151.214 8.86746 151.41 7.99081 151.801 7.19152C152.149 6.4678 152.705 5.85745 153.401 5.43358C154.084 5.00886 154.879 4.7887 155.689 4.80034C156.27 4.76851 156.85 4.86409 157.387 5.08003C157.924 5.29596 158.404 5.62673 158.793 6.04791C159.586 7.05778 159.975 8.31394 159.889 9.5827V10.4522H153.459C153.484 11.1581 153.774 11.8305 154.274 12.3425C154.509 12.5705 154.789 12.7494 155.097 12.868C155.406 12.9867 155.736 13.0426 156.068 13.0324C156.543 13.0385 157.013 12.9335 157.438 12.7263C157.863 12.5192 158.231 12.2158 158.512 11.8416L159.704 12.9474C159.315 13.5228 158.772 13.9837 158.133 14.28C157.441 14.6035 156.68 14.7622 155.912 14.7431ZM155.651 6.52993C155.377 6.51609 155.104 6.56146 154.851 6.66278C154.598 6.76411 154.371 6.91886 154.186 7.11591C153.782 7.62119 153.545 8.23432 153.507 8.87385H157.716V8.72263C157.697 8.1333 157.475 7.56738 157.086 7.11591C156.905 6.9216 156.683 6.76838 156.435 6.66711C156.187 6.56584 155.919 6.519 155.651 6.52993Z" fill="black"/>
<path d="M166.736 6.94578C166.437 6.89676 166.136 6.87147 165.834 6.87017C165.407 6.83111 164.979 6.92547 164.611 7.13959C164.243 7.35371 163.954 7.67645 163.787 8.06104V14.6202H161.576V4.97991H163.681L163.739 6.04791C163.958 5.66343 164.281 5.34428 164.672 5.12455C165.063 4.90482 165.508 4.79276 165.96 4.80034C166.224 4.79082 166.488 4.83258 166.736 4.9232V6.94578Z" fill="black"/>
<path d="M168.133 2.48477C168.128 2.33391 168.154 2.18359 168.209 2.04246C168.264 1.90133 168.347 1.7722 168.453 1.66251C168.712 1.4493 169.041 1.33233 169.38 1.33233C169.719 1.33233 170.047 1.4493 170.306 1.66251C170.415 1.77048 170.501 1.8991 170.558 2.04049C170.614 2.18188 170.641 2.33306 170.636 2.48477C170.64 2.63498 170.613 2.78452 170.557 2.92427C170.5 3.06402 170.415 3.19104 170.306 3.29758C170.044 3.50563 169.717 3.61926 169.38 3.61926C169.042 3.61926 168.715 3.50563 168.453 3.29758C168.348 3.18932 168.265 3.06178 168.21 2.9223C168.155 2.78281 168.129 2.63412 168.133 2.48477ZM170.48 14.573H168.269V4.97991H170.48V14.573Z" fill="black"/>
<path d="M177.219 14.7431C176.591 14.7679 175.965 14.6666 175.38 14.4454C174.794 14.2243 174.261 13.8881 173.815 13.4577C173.37 13.0002 173.024 12.4595 172.799 11.8682C172.574 11.2769 172.474 10.6473 172.506 10.0175V9.75282C172.491 8.86746 172.687 7.99081 173.078 7.19152C173.426 6.47022 173.978 5.86046 174.668 5.43358C175.355 5.01013 176.154 4.79015 176.967 4.80034C177.547 4.76851 178.127 4.86409 178.664 5.08003C179.201 5.29596 179.682 5.62673 180.07 6.04791C180.858 7.06015 181.247 8.31453 181.166 9.5827V10.4522H174.736C174.762 11.1581 175.052 11.8305 175.551 12.3425C175.786 12.5705 176.066 12.7494 176.375 12.868C176.683 12.9867 177.013 13.0426 177.345 13.0324C177.825 13.0431 178.301 12.9403 178.732 12.7329C179.162 12.5256 179.535 12.2197 179.818 11.8416L181.011 12.9474C180.622 13.5228 180.078 13.9837 179.44 14.28C178.747 14.6015 177.986 14.7601 177.219 14.7431ZM176.957 6.52993C176.679 6.5207 176.403 6.5719 176.148 6.67979C175.893 6.78769 175.666 6.94959 175.483 7.15372C175.076 7.64515 174.829 8.24436 174.775 8.87385H178.984V8.72263C178.976 8.13782 178.768 7.57239 178.392 7.11591C178.211 6.92262 177.989 6.77009 177.741 6.6689C177.493 6.56772 177.226 6.5203 176.957 6.52993Z" fill="black"/>
<path d="M184.929 4.97992L184.997 6.08572C185.345 5.66422 185.789 5.32828 186.295 5.105C186.8 4.88172 187.352 4.77736 187.906 4.80034C189.95 4.80034 190.99 5.94395 191.029 8.23116V14.573H188.818V8.35403C188.856 7.87167 188.715 7.39217 188.42 7.00249C188.243 6.84302 188.033 6.72186 187.804 6.64695C187.575 6.57203 187.332 6.54504 187.092 6.56773C186.679 6.55375 186.272 6.65714 185.919 6.86527C185.566 7.0734 185.282 7.37725 185.104 7.7397V14.573H182.893V4.97992H184.929Z" fill="black"/>
<path d="M197.285 13.023C197.787 13.0412 198.278 12.876 198.662 12.5599C198.837 12.4163 198.979 12.2388 199.079 12.0386C199.179 11.8384 199.236 11.6199 199.244 11.3973H201.329C201.302 11.9961 201.104 12.5755 200.757 13.0702C200.386 13.5924 199.885 14.015 199.302 14.2989C198.684 14.5946 198.003 14.7466 197.314 14.7431C196.704 14.7701 196.096 14.6684 195.53 14.4449C194.964 14.2214 194.455 13.8814 194.036 13.4483C193.183 12.4389 192.754 11.1526 192.834 9.84733V9.6205C192.768 8.34592 193.197 7.09397 194.036 6.11407C194.448 5.6736 194.954 5.32737 195.519 5.10023C196.084 4.87309 196.694 4.77068 197.304 4.80034C198.364 4.73193 199.408 5.07128 200.214 5.74547C200.582 6.08266 200.875 6.48978 201.075 6.94169C201.275 7.39361 201.378 7.88071 201.378 8.37293H199.293C199.289 7.8644 199.084 7.37691 198.72 7.01194C198.536 6.83902 198.319 6.70324 198.081 6.61241C197.843 6.52158 197.589 6.47749 197.334 6.48267C197.016 6.46747 196.7 6.52847 196.412 6.66031C196.125 6.79215 195.875 6.99079 195.685 7.23877C195.244 7.92441 195.037 8.72825 195.093 9.53544V9.9513C195.035 10.7651 195.235 11.5768 195.665 12.2763C195.854 12.5185 196.1 12.7128 196.382 12.8428C196.663 12.9728 196.973 13.0346 197.285 13.023Z" fill="black"/>
<path d="M207.332 14.7431C206.706 14.7683 206.081 14.6671 205.497 14.4459C204.913 14.2247 204.382 13.8883 203.938 13.4577C203.493 13.0002 203.147 12.4595 202.922 11.8682C202.697 11.2769 202.597 10.6473 202.629 10.0175V9.75282C202.614 8.86746 202.81 7.99081 203.201 7.19152C203.549 6.47022 204.101 5.86046 204.791 5.43358C205.478 5.01013 206.277 4.79015 207.09 4.80034C207.67 4.76851 208.25 4.86409 208.787 5.08003C209.324 5.29596 209.805 5.62673 210.193 6.04791C210.981 7.06015 211.37 8.31453 211.289 9.5827V10.4522H204.859C204.885 11.1581 205.175 11.8305 205.674 12.3425C205.909 12.5705 206.189 12.7494 206.498 12.868C206.806 12.9867 207.137 13.0426 207.468 13.0324C207.946 13.04 208.42 12.9358 208.848 12.7286C209.277 12.5214 209.648 12.2173 209.931 11.8416L211.124 12.9474C210.732 13.5242 210.186 13.9851 209.543 14.28C208.854 14.6021 208.096 14.7607 207.332 14.7431ZM207.07 6.52993C206.793 6.5207 206.516 6.5719 206.261 6.67979C206.006 6.78769 205.779 6.94959 205.596 7.15372C205.196 7.6474 204.956 8.24641 204.908 8.87385H209.117V8.72263C209.103 8.13557 208.888 7.5699 208.506 7.11591C208.324 6.92262 208.102 6.77009 207.854 6.6689C207.606 6.56772 207.339 6.5203 207.07 6.52993Z" fill="black"/>
<path d="M54.4141 32.7289V19.8185H58.2933C59.3825 19.7977 60.4576 20.0621 61.4063 20.584C62.3115 21.0862 63.0463 21.8352 63.5205 22.7389C64.0317 23.7357 64.2879 24.8382 64.2673 25.9524V26.6045C64.2958 27.7112 64.0461 28.8079 63.5399 29.799C63.0607 30.7198 62.3068 31.4776 61.3772 31.9728C60.401 32.4865 59.3056 32.7469 58.1963 32.7289H54.4141ZM56.7125 21.6237V30.9332H58.2157C58.7373 30.9604 59.2585 30.8725 59.7404 30.6761C60.2223 30.4798 60.6525 30.1799 60.999 29.799C61.6973 28.8891 62.041 27.7669 61.9688 26.6328V25.9145C62.0369 24.7692 61.694 23.6365 60.999 22.7106C60.6642 22.332 60.2438 22.0342 59.771 21.8407C59.2981 21.6472 58.7857 21.5632 58.2739 21.5953L56.7125 21.6237Z" fill="black"/>
<path d="M70.7068 32.8991C70.079 32.9256 69.4525 32.825 68.8666 32.6038C68.2808 32.3826 67.7483 32.0454 67.3027 31.6137C66.8586 31.1572 66.5137 30.6181 66.2888 30.0285C66.0638 29.439 65.9634 28.8112 65.9935 28.1829V27.9088C65.9764 27.0232 66.1723 26.146 66.5657 25.3475C66.9164 24.6249 67.4716 24.015 68.1659 23.5895C68.853 23.1661 69.6514 22.9461 70.4643 22.9563C71.0444 22.9245 71.6245 23.02 72.1616 23.236C72.6988 23.4519 73.1793 23.7827 73.5677 24.2039C74.3572 25.219 74.7462 26.4768 74.6636 27.7481V28.6082H68.2241C68.2442 29.3152 68.5347 29.9894 69.0387 30.4984C69.2737 30.7265 69.5541 30.9053 69.8627 31.024C70.1712 31.1426 70.5013 31.1986 70.8328 31.1884C71.3135 31.1956 71.7889 31.0903 72.2192 30.8814C72.6495 30.6726 73.0221 30.3662 73.3058 29.9881L74.4987 31.0939C74.1046 31.6687 73.5584 32.1292 72.9179 32.4265C72.2294 32.7518 71.4717 32.9137 70.7068 32.8991ZM70.4449 24.6859C70.1671 24.6766 69.8907 24.7278 69.6357 24.8357C69.3807 24.9436 69.1536 25.1055 68.9708 25.3097C68.5635 25.8011 68.3169 26.4003 68.2629 27.0298H72.4718V26.8786C72.4694 26.2841 72.2609 25.708 71.8802 25.2435C71.6975 25.0538 71.4742 24.9055 71.2262 24.8092C70.9782 24.7128 70.7115 24.6707 70.4449 24.6859Z" fill="black"/>
<path d="M81.8883 30.1204C81.8987 29.9434 81.8579 29.7671 81.7704 29.6117C81.6829 29.4563 81.5524 29.328 81.3937 29.2414C80.8975 28.9798 80.3599 28.801 79.8032 28.7121C79.1352 28.5921 78.4841 28.3954 77.8636 28.1261C77.3849 27.9577 76.97 27.6515 76.6738 27.2481C76.3777 26.8447 76.2143 26.3632 76.2052 25.8673C76.2033 25.4625 76.2998 25.0629 76.4869 24.7015C76.6741 24.3401 76.9464 24.027 77.2817 23.788C78.0633 23.2105 79.0269 22.9164 80.0069 22.9563C81.0296 22.9096 82.0374 23.2102 82.8581 23.8069C83.2129 24.0615 83.5001 24.395 83.6958 24.7797C83.8915 25.1644 83.99 25.5892 83.983 26.0185H81.7428C81.7471 25.8227 81.7078 25.6283 81.6274 25.4488C81.547 25.2693 81.4275 25.1089 81.2773 24.9789C80.9239 24.6946 80.4742 24.5496 80.0166 24.5725C79.5969 24.5518 79.1816 24.6646 78.8334 24.8938C78.687 24.9911 78.5678 25.1224 78.4865 25.2759C78.4052 25.4293 78.3645 25.6001 78.3679 25.7728C78.3692 25.926 78.4088 26.0766 78.4831 26.2116C78.5574 26.3466 78.6643 26.462 78.7946 26.5478C79.3415 26.817 79.9266 27.005 80.5305 27.1054C81.2368 27.2359 81.9218 27.4584 82.5671 27.767C83.0126 27.9846 83.3933 28.31 83.6727 28.7121C83.9192 29.1074 84.0438 29.5635 84.0315 30.0259C84.0382 30.4372 83.9409 30.8438 83.748 31.2097C83.5552 31.5757 83.2729 31.8897 82.926 32.124C82.0724 32.6939 81.0496 32.973 80.0166 32.918C79.2757 32.9309 78.5408 32.7857 77.8636 32.4926C77.2734 32.2422 76.7639 31.8404 76.3895 31.3301C76.0639 30.8489 75.9012 30.2805 75.924 29.7045H78.0769C78.078 29.9308 78.1318 30.1538 78.2343 30.3569C78.3368 30.5599 78.4853 30.7376 78.6685 30.8765C79.0805 31.131 79.5547 31.274 80.0422 31.2906C80.5297 31.3072 81.0129 31.1969 81.4422 30.971C81.5821 30.8754 81.6959 30.7479 81.7736 30.5997C81.8514 30.4514 81.8907 30.2869 81.8883 30.1204Z" fill="black"/>
<path d="M85.9909 20.6407C85.9859 20.4899 86.0117 20.3395 86.0666 20.1984C86.1215 20.0573 86.2046 19.9281 86.311 19.8185C86.4383 19.698 86.591 19.606 86.7584 19.5489C86.9259 19.4918 87.1042 19.4709 87.2808 19.4877C87.4572 19.4734 87.6347 19.4954 87.8018 19.5524C87.9689 19.6094 88.1218 19.7001 88.2506 19.8185C88.3582 19.9277 88.4428 20.0565 88.4994 20.1976C88.5559 20.3387 88.5834 20.4893 88.5803 20.6407C88.5838 20.7908 88.5564 20.94 88.4998 21.0796C88.4431 21.2192 88.3584 21.3463 88.2506 21.4535C88.121 21.5702 87.9677 21.6592 87.8007 21.7145C87.6336 21.7699 87.4565 21.7904 87.2808 21.7749C87.1049 21.7929 86.9271 21.7735 86.7596 21.718C86.5922 21.6625 86.4391 21.5723 86.311 21.4535C86.2044 21.3459 86.1212 21.2185 86.0662 21.0788C86.0112 20.9392 85.9856 20.7902 85.9909 20.6407ZM88.3378 32.7289H86.1267V23.1831H88.3378V32.7289Z" fill="black"/>
<path d="M90.3554 27.9088C90.2783 26.6162 90.6621 25.3374 91.4416 24.2889C91.7804 23.8547 92.2219 23.5067 92.7285 23.2747C93.2351 23.0426 93.7917 22.9334 94.351 22.9563C94.8459 22.9452 95.3368 23.0451 95.7858 23.2483C96.2348 23.4515 96.6298 23.7526 96.9404 24.1282L97.0374 23.1831H99.0351V32.4832C99.0625 33.0341 98.9694 33.5845 98.7621 34.0977C98.5548 34.611 98.238 35.0754 97.8326 35.4604C96.932 36.2205 95.7637 36.6102 94.5741 36.5473C93.846 36.5471 93.1259 36.3991 92.4599 36.1125C91.841 35.8699 91.299 35.4721 90.8888 34.9594L91.9362 33.5795C92.2338 33.9511 92.6151 34.2509 93.0507 34.4557C93.4863 34.6606 93.9644 34.765 94.448 34.761C95.0816 34.7967 95.7045 34.5898 96.1839 34.1844C96.4086 33.9595 96.5818 33.6908 96.6921 33.396C96.8024 33.1011 96.8474 32.7868 96.824 32.4737V31.8311C96.5022 32.1743 96.1069 32.4444 95.6662 32.6224C95.2255 32.8004 94.75 32.882 94.2734 32.8612C93.73 32.8787 93.1901 32.7704 92.6979 32.5454C92.2057 32.3203 91.7752 31.9848 91.4416 31.5664C90.6691 30.5003 90.2866 29.2122 90.3554 27.9088ZM92.5569 28.0883C92.5122 28.8898 92.7222 29.6852 93.1581 30.3661C93.3423 30.6321 93.593 30.8481 93.8866 30.9936C94.1801 31.1391 94.5068 31.2094 94.8359 31.1978C95.2335 31.2056 95.6256 31.1054 95.9681 30.9085C96.3107 30.7115 96.5902 30.4255 96.7755 30.0826V25.8106C96.5907 25.4693 96.3104 25.186 95.9671 24.9936C95.6238 24.8013 95.2316 24.7077 94.8359 24.7237C94.5027 24.7099 94.1714 24.78 93.8741 24.9273C93.5768 25.0747 93.3236 25.2943 93.1387 25.5648C92.6967 26.3156 92.4941 27.1777 92.5569 28.0411V28.0883Z" fill="black"/>
<path d="M103.349 23.1831L103.417 24.2889C103.764 23.8663 104.208 23.5295 104.714 23.3061C105.22 23.0827 105.772 22.979 106.327 23.0035C108.383 23.0035 109.42 24.1472 109.459 26.4344V32.7289H107.248V26.51C107.287 26.026 107.142 25.5449 106.841 25.1584C106.666 24.9982 106.457 24.8764 106.23 24.8014C106.002 24.7264 105.761 24.6999 105.522 24.7237C105.118 24.7189 104.72 24.8266 104.377 25.0342C104.033 25.2418 103.758 25.5407 103.582 25.8956V32.7289H101.371V23.1831H103.349Z" fill="black"/>
<path d="M0.279297 0.5H1.71461V3.38265H0.279297V0.5ZM0.279297 35.0445V5.37687H1.71461V35.0445H0.279297Z" fill="black"/>
<path d="M28.6257 35.4037C26.5419 35.4081 24.4814 34.9762 22.5838 34.1372C20.7059 33.3329 19.0063 32.1805 17.5796 30.7442C16.1404 29.2594 15.0048 27.5208 14.2338 25.6216C12.6044 21.6113 12.6044 17.1466 14.2338 13.1364C15.0009 11.2211 16.1365 9.4663 17.5796 7.96653C19.0049 6.51898 20.7042 5.35395 22.5838 4.53571C24.4965 3.70088 26.5687 3.26933 28.6645 3.26933C30.7603 3.26933 32.8324 3.70088 34.7451 4.53571C36.6013 5.35985 38.2773 6.52467 39.6814 7.96653C41.1194 9.45228 42.2547 11.1906 43.0273 13.0891C43.8461 15.0747 44.2611 17.1965 44.2492 19.3364H14.4472C14.4341 21.2797 14.813 23.2064 15.5624 25.0072C16.2725 26.7293 17.2978 28.3113 18.5882 29.6762C19.8601 31.0071 21.3893 32.0799 23.0881 32.8329C24.8464 33.608 26.7541 34.009 28.6839 34.009C30.6137 34.009 32.5213 33.608 34.2796 32.8329C36.0449 32.0279 37.625 30.8834 38.925 29.4682L40.0015 30.4134C38.5817 32.0176 36.8258 33.3067 34.8518 34.1939C32.8914 35.0337 30.7666 35.4465 28.6257 35.4037ZM28.6257 4.67748C26.8348 4.67296 25.061 5.01677 23.4081 5.68877C21.7862 6.35784 20.3087 7.31988 19.0537 8.52416C17.7848 9.74464 16.7386 11.1669 15.9601 12.73C15.1379 14.3648 14.6503 16.1401 14.5248 17.9566H42.7363C42.6066 16.1407 42.1193 14.3662 41.301 12.73C40.5156 11.1685 39.4666 9.74675 38.1976 8.52416C36.9459 7.31592 35.4677 6.35334 33.8432 5.68877C32.1906 5.01604 30.4166 4.6722 28.6257 4.67748Z" fill="black"/>
<path d="M22.8763 17.9282H3.73242V19.327H22.8763V17.9282Z" fill="black"/>
</g>
<defs>
<clipPath id="clip0_5397_1286">
<rect width="211" height="36" fill="white" transform="translate(0.279297 0.5)"/>
</clipPath>
</defs>
</svg>
